<?xml version="1.0" standalone="no"?>
<!DOCTYPE svg PUBLIC "-//W3C//DTD SVG 20010904//EN"
 "http://www.w3.org/TR/2001/REC-SVG-20010904/DTD/svg10.dtd">
<svg version="1.0" xmlns="http://www.w3.org/2000/svg"
 width="2826.000000pt" height="603.000000pt" viewBox="0 0 2826.000000 603.000000"
 preserveAspectRatio="xMidYMid meet">

<g transform="translate(0.000000,603.000000) scale(0.100000,-0.100000)"
fill="#000000" stroke="none">
<path d="M2645 5461 c-3 -5 -2 -12 3 -15 16 -10 256 -8 259 1 7 21 -249 34
-262 14z"/>
<path d="M2510 5446 c0 -9 5 -16 10 -16 6 0 10 4 10 9 0 6 -4 13 -10 16 -5 3
-10 -1 -10 -9z"/>
<path d="M3025 5441 c-3 -5 -1 -12 5 -16 5 -3 10 1 10 9 0 18 -6 21 -15 7z"/>
<path d="M2240 5419 c-91 -19 -121 -32 -107 -45 9 -10 251 42 255 54 5 17 -37
14 -148 -9z"/>
<path d="M3160 5416 c0 -8 43 -24 113 -40 61 -16 118 -30 125 -33 6 -2 12 2
12 10 0 14 -47 29 -187 61 -50 11 -63 12 -63 2z"/>
<path d="M2005 5349 c-10 -15 3 -25 16 -12 7 7 7 13 1 17 -6 3 -14 1 -17 -5z"/>
<path d="M3520 5310 c0 -5 5 -10 10 -10 6 0 10 5 10 10 0 6 -4 10 -10 10 -5 0
-10 -4 -10 -10z"/>
<path d="M1761 5262 c-58 -26 -106 -53 -109 -59 -6 -22 22 -15 110 26 45 21
96 43 111 50 27 11 29 31 4 31 -7 -1 -59 -22 -116 -48z"/>
<path d="M3652 5260 c5 -16 222 -119 232 -110 5 5 -41 33 -103 64 -110 56
-136 65 -129 46z"/>
<path d="M1536 5141 c-4 -5 -2 -12 3 -15 5 -4 12 -2 15 3 4 5 2 12 -3 15 -5 4
-12 2 -15 -3z"/>
<path d="M3980 5080 c0 -5 5 -10 10 -10 6 0 10 5 10 10 0 6 -4 10 -10 10 -5 0
-10 -4 -10 -10z"/>
<path d="M1322 5003 c-88 -65 -110 -87 -94 -97 8 -4 205 140 210 155 9 24 -33
3 -116 -58z"/>
<path d="M4095 5010 c-4 -6 -5 -12 -4 -14 31 -22 132 -103 159 -125 38 -33 50
-38 49 -18 0 6 -28 35 -62 63 -108 88 -135 106 -142 94z"/>
<path d="M22413 4960 c-59 -12 -96 -34 -135 -80 -135 -157 -22 -391 189 -390
182 1 296 188 213 351 -47 90 -158 140 -267 119z"/>
<path d="M1120 4831 c0 -6 5 -13 10 -16 6 -3 10 1 10 9 0 9 -4 16 -10 16 -5 0
-10 -4 -10 -9z"/>
<path d="M4380 4761 c0 -6 5 -13 10 -16 6 -3 10 1 10 9 0 9 -4 16 -10 16 -5 0
-10 -4 -10 -9z"/>
<path d="M948 4654 c-84 -99 -94 -114 -76 -114 7 0 47 39 88 87 90 104 96 113
76 113 -8 0 -48 -39 -88 -86z"/>
<path d="M6250 4566 l0 -153 38 -7 c20 -3 162 -6 315 -6 l278 0 -3 -492 c-3
-483 -3 -494 -25 -533 -76 -142 -274 -166 -452 -54 -50 31 -66 37 -77 28 -8
-6 -53 -57 -101 -112 l-87 -100 38 -32 c129 -108 298 -164 499 -165 316 -1
549 163 624 440 16 59 18 124 18 700 l0 635 -532 3 -533 2 0 -154z"/>
<path d="M20460 3850 l0 -870 220 0 220 0 0 319 0 318 73 6 c39 2 76 3 80 0 4
-3 80 -148 167 -324 l160 -319 236 0 236 0 -35 63 c-83 150 -347 655 -347 663
0 5 21 20 47 34 77 41 159 124 195 198 l33 67 0 175 0 175 -32 68 c-42 89
-119 164 -215 211 -149 73 -254 85 -715 86 l-323 0 0 -870z m745 551 c86 -39
122 -126 112 -272 -6 -85 -22 -124 -67 -162 -44 -38 -89 -47 -227 -47 l-123 0
0 250 0 250 133 0 c106 0 140 -4 172 -19z"/>
<path d="M4476 4662 c-3 -5 32 -55 77 -112 55 -69 83 -98 85 -86 2 9 -22 50
-52 90 -66 86 -102 121 -110 108z"/>
<path d="M9409 4483 l-14 -158 -97 -3 -98 -3 0 -149 0 -150 53 0 c28 0 69 -3
90 -6 l37 -7 0 -336 c0 -187 5 -365 11 -401 38 -235 204 -344 499 -327 94 6
213 26 226 39 3 3 -3 66 -13 139 l-18 134 -96 0 c-75 0 -101 4 -123 18 -53 35
-56 57 -56 412 l0 325 83 0 c45 0 106 3 135 6 l52 7 0 148 0 149 -135 0 -135
0 0 160 0 160 -193 0 -194 0 -14 -157z"/>
<path d="M11970 4480 l-13 -160 -98 0 -99 0 0 -150 0 -150 53 0 c28 0 69 -3
90 -6 l37 -7 0 -326 c0 -179 5 -359 10 -399 31 -241 198 -354 495 -338 98 5
217 25 231 39 3 3 -3 65 -13 138 l-18 134 -90 0 c-106 0 -142 14 -167 65 -16
31 -18 71 -18 363 l0 327 89 0 c48 0 109 3 135 6 l46 7 0 148 0 149 -135 0
-135 0 0 160 0 160 -193 0 -194 0 -13 -160z"/>
<path d="M786 4441 c-4 -5 -2 -12 3 -15 5 -4 12 -2 15 3 4 5 2 12 -3 15 -5 4
-12 2 -15 -3z"/>
<path d="M4700 4356 c0 -9 5 -16 10 -16 6 0 10 4 10 9 0 6 -4 13 -10 16 -5 3
-10 -1 -10 -9z"/>
<path d="M8253 4349 c-263 -26 -465 -208 -519 -469 -24 -115 -15 -443 14 -523
75 -204 217 -336 422 -393 92 -26 328 -26 425 0 131 35 305 115 305 140 0 7
-113 219 -125 234 -1 1 -31 -11 -66 -27 -101 -48 -182 -65 -299 -66 -90 0
-112 3 -153 24 -26 12 -58 37 -72 55 -25 33 -55 130 -55 178 l0 28 399 0 399
0 8 67 c8 82 -1 234 -21 328 -64 302 -310 459 -662 424z m214 -297 c58 -41 93
-126 93 -229 l0 -53 -216 0 -217 0 6 58 c14 126 52 201 119 236 48 24 174 17
215 -12z"/>
<path d="M10880 4350 c-149 -14 -280 -69 -362 -151 -71 -71 -91 -122 -96 -244
-9 -223 73 -311 402 -429 226 -82 256 -103 256 -181 0 -84 -82 -123 -234 -112
-95 7 -183 35 -257 82 -41 25 -57 31 -67 23 -19 -16 -172 -195 -172 -201 0
-12 130 -98 181 -121 197 -87 497 -99 693 -29 226 81 316 235 276 470 -26 158
-119 236 -395 333 -210 74 -265 109 -265 172 0 40 15 65 49 82 77 40 243 23
358 -38 53 -28 70 -33 79 -23 55 61 154 187 154 196 0 16 -112 87 -179 112
-140 53 -279 72 -421 59z"/>
<path d="M14713 4349 c-238 -23 -420 -170 -498 -400 -26 -77 -29 -99 -33 -266
-5 -212 8 -291 65 -413 67 -141 213 -258 378 -303 109 -29 279 -33 395 -9 111
23 236 69 304 112 l47 30 -19 33 c-10 17 -40 71 -67 118 l-47 86 -84 -34
c-118 -48 -211 -66 -311 -60 -153 9 -227 77 -242 222 l-7 65 398 0 397 0 7 37
c10 55 -3 300 -21 372 -51 208 -191 352 -386 395 -84 18 -187 24 -276 15z
m221 -303 c21 -16 47 -49 58 -73 18 -41 40 -179 31 -195 -4 -9 -416 -11 -424
-3 -14 13 13 153 38 204 40 80 83 103 184 99 66 -3 81 -7 113 -32z"/>
<path d="M16205 4350 c-144 -15 -356 -80 -416 -129 l-21 -17 50 -99 c75 -150
64 -142 152 -107 113 45 218 65 313 60 90 -5 137 -23 164 -64 19 -30 35 -118
28 -155 l-6 -26 -192 -6 c-277 -7 -384 -42 -492 -159 -80 -86 -109 -207 -86
-359 25 -158 110 -259 268 -316 175 -63 377 -32 526 82 33 25 49 32 52 23 3
-7 11 -31 18 -53 l14 -40 161 -3 162 -2 0 459 c0 501 -5 563 -55 662 -60 118
-180 205 -322 234 -94 18 -223 25 -318 15z m266 -880 c1 -60 2 -116 3 -122 4
-22 -47 -69 -99 -94 -66 -31 -156 -33 -203 -4 -77 47 -86 205 -16 275 41 41
87 53 217 54 l97 1 1 -110z"/>
<path d="M18016 4349 c-78 -11 -173 -57 -230 -109 l-45 -41 -12 60 -12 61
-183 0 -184 0 0 -670 0 -670 210 0 210 0 0 476 0 475 27 35 c57 75 159 105
223 67 55 -32 55 -28 58 -560 l3 -493 208 0 c181 0 210 2 215 16 3 9 6 226 6
483 l0 467 43 41 c54 52 76 63 127 63 53 0 95 -22 117 -63 16 -29 18 -76 21
-519 l3 -488 209 0 210 0 0 489 c0 290 -4 510 -10 542 -25 131 -108 247 -215
300 -166 81 -369 47 -514 -86 l-58 -54 -38 46 c-88 105 -235 155 -389 132z"/>
<path d="M23556 4349 c-191 -20 -339 -101 -411 -224 -50 -84 -54 -252 -10
-351 46 -105 142 -166 400 -259 172 -61 211 -85 224 -133 27 -98 -41 -151
-189 -152 -108 0 -235 40 -322 101 -14 11 -28 19 -31 19 -8 0 -177 -201 -177
-210 0 -17 77 -72 155 -111 134 -66 213 -82 410 -83 149 -1 180 2 250 22 156
45 255 117 303 220 21 47 27 76 30 158 6 160 -23 233 -127 315 -63 49 -103 68
-269 128 -196 70 -240 94 -258 137 -12 28 -13 43 -4 69 16 50 65 70 165 69 96
-1 148 -14 237 -60 l68 -34 85 103 c47 56 85 105 85 108 0 4 -21 21 -47 37
-166 106 -363 152 -567 131z"/>
<path d="M25030 4349 c-41 -5 -90 -14 -110 -20 -204 -67 -347 -225 -397 -436
-25 -108 -25 -399 0 -493 59 -223 211 -375 437 -437 50 -14 100 -18 215 -17
132 1 161 4 240 28 79 23 223 86 264 114 11 8 4 28 -39 108 -29 55 -59 109
-67 121 l-14 21 -62 -28 c-97 -46 -180 -64 -292 -65 -119 0 -179 19 -224 71
-33 37 -61 117 -61 176 l0 38 399 0 399 0 4 73 c6 100 -7 269 -27 346 -38 149
-133 279 -242 334 -112 57 -275 82 -423 66z m195 -284 c71 -29 111 -104 122
-227 l6 -68 -217 0 -216 0 0 43 c0 109 50 214 121 249 42 22 136 24 184 3z"/>
<path d="M13685 4341 c-102 -25 -197 -93 -247 -176 -18 -30 -35 -55 -39 -55
-3 0 -20 47 -39 105 l-34 105 -143 0 -143 0 0 -670 0 -670 215 0 215 0 0 370
0 371 24 47 c31 62 99 130 156 156 35 16 65 21 133 21 48 0 87 3 87 7 0 3 13
78 30 165 16 87 32 170 34 185 5 25 2 27 -45 37 -56 12 -158 13 -204 2z"/>
<path d="M687 4288 c-62 -107 -97 -188 -82 -188 8 0 15 3 15 8 0 4 25 52 55
107 30 54 55 103 55 107 0 20 -20 4 -43 -34z"/>
<path d="M22087 4313 c-4 -3 -7 -71 -7 -150 l0 -143 59 0 c32 0 73 -3 90 -6
l31 -6 0 -514 0 -514 215 0 215 0 0 670 0 670 -298 0 c-164 0 -302 -3 -305 -7z"/>
<path d="M4770 4237 c0 -16 94 -215 109 -230 5 -5 12 -4 15 1 8 13 -85 212
-107 231 -15 12 -17 11 -17 -2z"/>
<path d="M540 3980 c0 -5 4 -10 9 -10 6 0 13 5 16 10 3 6 -1 10 -9 10 -9 0
-16 -4 -16 -10z"/>
<path d="M1978 3338 c-4 -559 -6 -628 -21 -676 -37 -109 -102 -150 -254 -159
l-93 -6 0 -88 0 -89 103 0 c282 1 419 97 463 327 11 60 14 198 14 694 l0 619
-104 0 -105 0 -3 -622z"/>
<path d="M2590 3145 l0 -815 110 0 110 0 0 329 c0 181 3 336 6 345 5 14 34 16
213 16 227 0 275 -8 336 -55 57 -43 97 -143 161 -402 l56 -233 114 0 c86 0
112 3 109 13 -2 6 -31 116 -64 243 -33 126 -70 255 -83 285 -49 122 -120 198
-218 232 -25 9 -38 16 -30 17 39 1 146 64 199 117 75 75 102 143 109 269 9
191 -68 325 -232 400 -100 46 -179 53 -553 54 l-343 0 0 -815z m738 610 c58
-20 120 -73 148 -127 22 -42 31 -182 15 -231 -17 -52 -65 -113 -111 -142 -74
-46 -137 -56 -361 -53 l-204 3 -3 265 c-1 146 0 276 3 289 l6 23 227 -4 c184
-4 237 -9 280 -23z"/>
<path d="M4920 3890 c0 -5 5 -10 10 -10 6 0 10 5 10 10 0 6 -4 10 -10 10 -5 0
-10 -4 -10 -10z"/>
<path d="M490 3844 c-21 -54 -63 -224 -57 -230 10 -10 27 6 27 25 0 10 13 63
29 117 18 59 26 103 21 108 -6 6 -14 -2 -20 -20z"/>
<path d="M4964 3743 c4 -16 17 -73 30 -127 12 -55 28 -102 34 -104 7 -2 12 5
12 16 0 28 -40 203 -52 225 -14 28 -31 21 -24 -10z"/>
<path d="M406 3491 c-4 -5 -2 -12 3 -15 5 -4 12 -2 15 3 4 5 2 12 -3 15 -5 4
-12 2 -15 -3z"/>
<path d="M5040 3390 c0 -5 5 -10 10 -10 6 0 10 5 10 10 0 6 -4 10 -10 10 -5 0
-10 -4 -10 -10z"/>
<path d="M386 3352 c-2 -4 -8 -63 -12 -130 -6 -109 -5 -122 10 -122 13 0 16
12 16 69 0 37 3 96 6 130 5 41 3 61 -4 61 -6 0 -13 -4 -16 -8z"/>
<path d="M5050 3129 c0 -100 3 -130 13 -127 8 3 13 37 15 109 3 109 -2 149
-18 149 -6 0 -10 -52 -10 -131z"/>
<path d="M374 3066 c-6 -17 10 -234 19 -242 18 -18 21 17 13 130 -9 116 -18
148 -32 112z"/>
<path d="M5040 2870 c0 -5 4 -10 9 -10 6 0 13 5 16 10 3 6 -1 10 -9 10 -9 0
-16 -4 -16 -10z"/>
<path d="M5026 2739 c-3 -8 -15 -59 -26 -114 -11 -55 -23 -108 -26 -117 -9
-28 15 -21 26 7 20 53 49 220 40 229 -6 6 -11 4 -14 -5z"/>
<path d="M410 2690 c0 -5 4 -10 9 -10 6 0 13 5 16 10 3 6 -1 10 -9 10 -9 0
-16 -4 -16 -10z"/>
<path d="M440 2552 c0 -29 56 -212 69 -225 25 -25 22 9 -11 120 -33 107 -58
154 -58 105z"/>
<path d="M4930 2370 c0 -5 7 -10 15 -10 8 0 15 5 15 10 0 6 -7 10 -15 10 -8 0
-15 -4 -15 -10z"/>
<path d="M4873 2213 c-8 -21 -30 -71 -49 -112 -36 -77 -39 -91 -25 -91 8 0
111 212 111 230 0 24 -22 7 -37 -27z"/>
<path d="M560 2200 c0 -5 5 -10 10 -10 6 0 10 5 10 10 0 6 -4 10 -10 10 -5 0
-10 -4 -10 -10z"/>
<path d="M615 2080 c-7 -11 94 -198 119 -219 32 -27 20 9 -35 108 -65 117 -74
128 -84 111z"/>
<path d="M6220 1750 l0 -300 226 0 225 0 -3 33 -3 32 -182 3 -183 2 0 105 0
105 165 0 165 0 0 35 0 35 -165 0 -165 0 0 90 0 90 175 0 175 0 0 35 0 35
-215 0 -215 0 0 -300z"/>
<path d="M7490 1750 l0 -300 34 0 34 0 3 153 c4 172 13 197 76 223 28 12 42
13 70 3 54 -17 63 -51 63 -229 l0 -150 35 0 35 0 0 173 c0 192 -9 229 -65 257
-46 23 -138 19 -174 -8 -17 -12 -33 -22 -36 -22 -3 0 -5 45 -5 100 l0 100 -35
0 -35 0 0 -300z"/>
<path d="M10700 1944 l0 -106 -30 26 c-80 67 -198 35 -245 -67 -44 -94 -29
-235 33 -301 57 -60 143 -73 206 -31 34 23 36 23 36 5 0 -16 7 -20 35 -20 l35
0 0 300 0 300 -35 0 -35 0 0 -106z m-44 -135 c34 -32 47 -81 42 -166 -3 -72
-5 -76 -41 -109 -41 -38 -72 -42 -117 -19 -46 24 -65 68 -65 155 1 84 22 135
66 158 32 17 86 8 115 -19z"/>
<path d="M11390 1750 l0 -300 185 0 185 0 0 35 0 35 -145 0 -145 0 0 265 0
265 -40 0 -40 0 0 -300z"/>
<path d="M14730 1750 l0 -300 35 0 35 0 0 300 0 300 -35 0 -35 0 0 -300z"/>
<path d="M15638 1804 l-3 -246 -28 -24 c-63 -54 -147 -9 -147 79 0 15 -5 18
-22 13 -13 -3 -29 -6 -35 -6 -17 0 -17 -52 1 -93 7 -18 26 -43 41 -57 23 -22
36 -25 98 -25 58 0 78 4 103 22 60 43 64 64 64 337 l0 246 -34 0 -34 0 -4
-246z"/>
<path d="M16613 2017 c-31 -18 -33 -22 -33 -73 0 -51 -1 -54 -25 -54 -21 0
-25 -5 -25 -30 0 -25 4 -30 24 -30 l25 0 3 -176 c3 -171 4 -176 27 -195 16
-13 39 -19 73 -19 l49 0 -3 33 c-3 27 -7 32 -33 35 -16 2 -33 9 -37 15 -4 7
-8 78 -8 160 l0 147 41 0 c38 0 40 1 37 28 -3 23 -8 27 -40 30 l-37 3 -3 73
-3 72 -32 -19z"/>
<path d="M17533 2017 c-31 -18 -33 -22 -33 -73 0 -51 -1 -54 -25 -54 -21 0
-25 -5 -25 -30 0 -25 4 -30 24 -30 l25 0 3 -176 c3 -171 4 -176 27 -195 16
-13 39 -19 73 -19 l49 0 -3 33 c-3 27 -7 32 -33 35 -16 2 -33 9 -37 15 -4 7
-8 78 -8 160 l0 147 41 0 c38 0 40 1 37 28 -3 23 -8 27 -40 30 l-37 3 -3 73
-3 72 -32 -19z"/>
<path d="M4720 1900 c0 -5 5 -10 10 -10 6 0 10 5 10 10 0 6 -4 10 -10 10 -5 0
-10 -4 -10 -10z"/>
<path d="M7030 1885 c-19 -9 -42 -23 -52 -32 -17 -15 -18 -14 -18 10 0 23 -4
27 -30 27 l-30 0 0 -220 0 -220 35 0 35 0 0 145 c0 199 18 236 113 239 31 1
44 -5 63 -27 23 -27 24 -33 24 -193 l0 -164 41 0 41 0 -3 178 c-4 191 -10 212
-63 247 -35 23 -115 28 -156 10z"/>
<path d="M8177 1885 c-47 -16 -83 -48 -96 -85 -8 -25 -7 -29 12 -34 41 -11 55
-6 61 20 4 16 19 30 41 40 75 31 150 8 161 -50 3 -19 3 -39 0 -44 -3 -5 -40
-15 -83 -21 -118 -19 -147 -28 -176 -59 -35 -37 -44 -87 -24 -135 21 -49 69
-77 132 -77 49 0 126 27 139 49 11 18 24 13 28 -11 2 -19 10 -24 42 -26 36 -3
38 -2 32 20 -4 13 -9 95 -13 183 -4 103 -10 169 -19 186 -26 51 -153 75 -237
44z m179 -291 c-4 -20 -20 -45 -42 -63 -64 -57 -174 -36 -174 33 0 46 29 65
125 84 101 19 104 18 91 -54z"/>
<path d="M8820 1885 c-19 -9 -42 -23 -52 -32 -17 -15 -18 -14 -18 10 0 23 -4
27 -30 27 l-30 0 0 -220 0 -220 35 0 35 0 0 145 c0 199 18 236 113 239 31 1
44 -5 63 -27 23 -27 24 -33 24 -193 l0 -164 41 0 41 0 -3 178 c-4 191 -10 212
-63 247 -35 23 -115 28 -156 10z"/>
<path d="M9385 1887 c-59 -23 -77 -39 -101 -90 -41 -88 -29 -242 23 -299 48
-53 147 -73 217 -44 37 15 91 77 101 114 7 29 8 28 -30 36 -28 6 -32 4 -43
-28 -27 -73 -99 -97 -163 -53 -39 26 -57 76 -57 152 0 69 19 116 58 143 57 38
126 21 150 -38 12 -28 17 -31 43 -26 39 8 41 10 33 39 -20 80 -141 129 -231
94z"/>
<path d="M9936 1885 c-84 -30 -126 -105 -126 -224 1 -137 76 -221 200 -221 60
0 96 13 133 48 28 26 62 80 55 87 -2 2 -20 6 -40 10 -30 6 -38 4 -38 -8 0 -26
-67 -77 -101 -77 -69 0 -114 41 -133 123 l-6 27 160 0 160 0 0 48 c-1 143
-130 235 -264 187z m119 -59 c35 -15 65 -59 65 -96 0 -19 -6 -20 -115 -20
-109 0 -115 1 -115 20 0 33 28 78 58 94 34 19 64 20 107 2z"/>
<path d="M12077 1885 c-47 -16 -83 -48 -96 -85 -8 -25 -7 -29 12 -34 41 -11
55 -6 61 20 4 16 19 30 41 40 75 31 150 8 161 -50 3 -19 3 -39 0 -44 -3 -5
-40 -15 -83 -21 -118 -19 -147 -28 -176 -59 -35 -37 -44 -87 -24 -135 21 -49
69 -77 132 -77 49 0 126 27 139 49 11 18 24 13 28 -11 2 -19 10 -24 42 -26 36
-3 38 -2 32 20 -4 13 -9 95 -13 183 -4 103 -10 169 -19 186 -26 51 -153 75
-237 44z m179 -291 c-4 -20 -20 -45 -42 -63 -64 -57 -174 -36 -174 33 0 46 29
65 125 84 101 19 104 18 91 -54z"/>
<path d="M12704 1891 c-12 -5 -29 -19 -37 -31 l-15 -22 -4 23 c-2 19 -10 25
-35 27 l-33 3 0 -220 0 -221 34 0 34 0 3 154 c4 139 6 157 25 183 18 24 28 28
67 27 42 0 47 3 58 28 8 19 8 33 2 39 -14 14 -75 20 -99 10z"/>
<path d="M13091 1888 c-50 -14 -77 -35 -96 -75 -14 -29 -15 -37 -4 -44 27 -17
54 -9 71 21 21 38 60 53 117 47 53 -6 79 -30 83 -77 l3 -35 -100 -17 c-55 -10
-113 -23 -129 -30 -85 -35 -88 -181 -4 -224 47 -24 146 -14 197 19 l39 26 6
-24 c6 -22 12 -25 47 -25 36 0 40 2 33 18 -4 9 -10 94 -13 188 -5 131 -10 175
-21 189 -39 47 -146 67 -229 43z m159 -328 c-29 -55 -134 -79 -181 -42 -26 22
-31 75 -8 97 8 8 55 23 104 32 l90 18 3 -42 c2 -23 -2 -52 -8 -63z"/>
<path d="M14243 1889 c-73 -22 -133 -121 -133 -219 0 -53 27 -135 56 -169 57
-68 197 -82 269 -27 33 25 75 90 64 100 -2 2 -18 7 -35 10 -28 6 -33 4 -52
-29 -34 -57 -100 -71 -160 -35 -33 20 -62 71 -62 110 0 19 6 20 161 20 l162 0
-7 58 c-9 75 -48 141 -100 166 -46 23 -118 29 -163 15z m139 -76 c20 -17 48
-72 48 -93 0 -6 -44 -10 -120 -10 -76 0 -120 4 -120 10 0 29 33 82 62 100 39
25 98 22 130 -7z"/>
<path d="M16076 1885 c-84 -30 -126 -105 -126 -224 1 -137 76 -221 200 -221
60 0 96 13 133 48 28 26 62 80 55 87 -2 2 -20 6 -40 10 -30 6 -38 4 -38 -8 0
-26 -67 -77 -101 -77 -69 0 -114 41 -133 123 l-6 27 160 0 160 0 0 48 c-1 143
-130 235 -264 187z m119 -59 c35 -15 65 -59 65 -96 0 -19 -6 -20 -115 -20
-109 0 -115 1 -115 20 0 33 28 78 58 94 34 19 64 20 107 2z"/>
<path d="M16993 1881 c-66 -31 -91 -98 -58 -161 18 -35 48 -52 130 -75 96 -26
115 -36 121 -61 14 -56 -51 -95 -131 -80 -35 7 -75 46 -75 73 0 11 -8 13 -32
8 -43 -9 -42 -8 -28 -49 18 -55 67 -87 144 -93 80 -7 126 8 166 53 24 28 30
43 30 83 0 70 -24 91 -147 130 -108 33 -129 48 -119 84 11 47 103 63 150 26
14 -11 26 -27 26 -35 0 -14 35 -19 63 -8 12 4 13 11 6 34 -28 78 -150 114
-246 71z"/>
<path d="M17974 1891 c-12 -5 -29 -19 -37 -31 l-15 -22 -4 23 c-2 19 -10 25
-35 27 l-33 3 0 -220 0 -221 34 0 34 0 3 154 c4 139 6 157 25 183 18 24 28 28
67 27 42 0 47 3 58 28 8 19 8 33 2 39 -14 14 -75 20 -99 10z"/>
<path d="M18366 1885 c-84 -30 -126 -105 -126 -224 1 -137 76 -221 200 -221
60 0 96 13 133 48 28 26 62 80 55 87 -2 2 -20 6 -40 10 -30 6 -38 4 -38 -8 0
-26 -67 -77 -101 -77 -69 0 -114 41 -133 123 l-6 27 160 0 160 0 0 48 c-1 143
-130 235 -264 187z m119 -59 c35 -15 65 -59 65 -96 0 -19 -6 -20 -115 -20
-109 0 -115 1 -115 20 0 33 28 78 58 94 34 19 64 20 107 2z"/>
<path d="M18961 1888 c-50 -14 -77 -35 -96 -75 -14 -29 -15 -37 -4 -44 27 -17
54 -9 71 21 21 38 60 53 117 47 53 -6 79 -30 83 -77 l3 -35 -100 -17 c-55 -10
-113 -23 -129 -30 -85 -35 -88 -181 -4 -224 47 -24 146 -14 197 19 l39 26 6
-24 c6 -22 12 -25 47 -25 36 0 40 2 33 18 -4 9 -10 94 -13 188 -5 131 -10 175
-21 189 -39 47 -146 67 -229 43z m159 -328 c-29 -55 -134 -79 -181 -42 -26 22
-31 75 -8 97 8 8 55 23 104 32 l90 18 3 -42 c2 -23 -2 -52 -8 -63z"/>
<path d="M19590 1889 c-14 -6 -35 -20 -47 -31 l-23 -21 0 26 c0 23 -4 27 -30
27 l-30 0 0 -220 0 -220 35 0 35 0 0 145 c0 173 10 208 66 231 44 18 84 8 101
-27 9 -16 13 -78 13 -186 l0 -163 34 0 34 0 4 153 c4 176 15 208 73 227 49 16
90 -1 104 -42 6 -17 11 -100 11 -184 l0 -154 36 0 35 0 -3 184 c-3 169 -5 187
-24 213 -46 62 -145 68 -209 12 -34 -30 -34 -30 -45 -9 -22 42 -112 62 -170
39z"/>
<path d="M13597 1743 c30 -82 66 -181 81 -220 25 -72 26 -73 61 -73 l36 0 73
198 c96 259 92 242 49 242 -29 0 -37 -5 -45 -27 -5 -16 -31 -86 -56 -156 -57
-159 -61 -168 -70 -134 -3 14 -29 91 -57 171 l-51 146 -38 0 -38 0 55 -147z"/>
<path d="M4577 1699 c-75 -97 -87 -119 -68 -119 11 0 161 196 161 210 0 25
-23 3 -93 -91z"/>
<path d="M810 1750 c0 -5 5 -10 10 -10 6 0 10 5 10 10 0 6 -4 10 -10 10 -5 0
-10 -4 -10 -10z"/>
<path d="M890 1640 c0 -17 157 -190 172 -190 20 0 4 27 -45 79 -29 31 -64 71
-79 89 -26 31 -48 42 -48 22z"/>
<path d="M4410 1496 c0 -9 5 -16 10 -16 6 0 10 4 10 9 0 6 -4 13 -10 16 -5 3
-10 -1 -10 -9z"/>
<path d="M4223 1332 c-83 -70 -109 -102 -83 -102 17 0 190 151 190 166 0 8 -3
14 -7 13 -5 0 -49 -35 -100 -77z"/>
<path d="M1150 1371 c0 -6 5 -13 10 -16 6 -3 10 1 10 9 0 9 -4 16 -10 16 -5 0
-10 -4 -10 -9z"/>
<path d="M1255 1281 c-5 -9 99 -90 183 -142 51 -33 41 2 -10 36 -24 16 -69 48
-100 72 -61 46 -64 48 -73 34z"/>
<path d="M4015 1160 c-3 -5 1 -10 9 -10 9 0 16 5 16 10 0 6 -4 10 -9 10 -6 0
-13 -4 -16 -10z"/>
<path d="M3815 1055 c-135 -72 -139 -75 -128 -86 16 -16 233 97 233 121 0 17
-21 9 -105 -35z"/>
<path d="M1570 1065 c0 -8 5 -15 10 -15 6 0 10 7 10 15 0 8 -4 15 -10 15 -5 0
-10 -7 -10 -15z"/>
<path d="M1690 1001 c0 -8 94 -54 188 -90 37 -15 52 -17 52 -8 0 7 -51 34
-112 60 -118 49 -128 52 -128 38z"/>
<path d="M3560 926 c0 -9 5 -16 10 -16 6 0 10 4 10 9 0 6 -4 13 -10 16 -5 3
-10 -1 -10 -9z"/>
<path d="M3313 857 c-73 -19 -113 -35 -113 -44 0 -17 -3 -18 129 17 62 17 115
30 117 30 2 0 4 7 4 15 0 19 -4 19 -137 -18z"/>
<path d="M2046 871 c-4 -7 -5 -15 -2 -18 9 -9 19 4 14 18 -4 11 -6 11 -12 0z"/>
<path d="M2176 831 c-8 -12 35 -24 158 -46 106 -18 96 -18 96 -2 0 8 -35 19
-102 30 -57 10 -113 20 -124 23 -12 3 -25 1 -28 -5z"/>
<path d="M3060 790 c0 -5 4 -10 9 -10 6 0 13 5 16 10 3 6 -1 10 -9 10 -9 0
-16 -4 -16 -10z"/>
<path d="M2550 776 c0 -9 5 -16 10 -16 6 0 10 4 10 9 0 6 -4 13 -10 16 -5 3
-10 -1 -10 -9z"/>
<path d="M2787 781 c-114 -7 -134 -25 -32 -29 86 -3 189 9 190 23 0 12 -31 13
-158 6z"/>
</g>
</svg>
