<?xml version="1.0" standalone="no"?>
<!DOCTYPE svg PUBLIC "-//W3C//DTD SVG 20010904//EN"
 "http://www.w3.org/TR/2001/REC-SVG-20010904/DTD/svg10.dtd">
<svg version="1.0" xmlns="http://www.w3.org/2000/svg"
 width="473.000000pt" height="475.000000pt" viewBox="0 0 473.000000 475.000000"
 preserveAspectRatio="xMidYMid meet">

<g transform="translate(0.000000,475.000000) scale(0.100000,-0.100000)"
fill="#000000" stroke="none">
<path d="M2312 4743 c-12 -2 -20 -9 -17 -14 4 -5 65 -9 138 -9 77 0 127 4 122
9 -11 10 -208 22 -243 14z"/>
<path d="M2160 4724 c0 -8 5 -12 10 -9 6 4 8 11 5 16 -9 14 -15 11 -15 -7z"/>
<path d="M2675 4721 c-3 -5 -1 -12 5 -16 5 -3 10 1 10 9 0 18 -6 21 -15 7z"/>
<path d="M1900 4698 c-88 -18 -120 -31 -109 -42 2 -3 43 3 89 14 47 10 102 21
123 24 40 7 52 27 15 25 -13 -1 -66 -10 -118 -21z"/>
<path d="M2810 4692 c0 -4 51 -20 113 -35 126 -31 130 -32 134 -20 2 5 -43 21
-101 36 -107 28 -146 33 -146 19z"/>
<path d="M1655 4620 c3 -5 8 -10 11 -10 2 0 4 5 4 10 0 6 -5 10 -11 10 -5 0
-7 -4 -4 -10z"/>
<path d="M3170 4590 c0 -5 5 -10 10 -10 6 0 10 5 10 10 0 6 -4 10 -10 10 -5 0
-10 -4 -10 -10z"/>
<path d="M1500 4578 c-134 -60 -200 -92 -200 -99 0 -15 14 -11 101 29 46 21
96 44 112 50 15 6 27 16 27 22 0 12 -8 12 -40 -2z"/>
<path d="M3300 4541 c0 -6 68 -43 223 -119 4 -2 7 2 7 10 0 7 -47 37 -105 66
-106 52 -125 59 -125 43z"/>
<path d="M1185 4410 c3 -5 8 -10 11 -10 2 0 4 5 4 10 0 6 -5 10 -11 10 -5 0
-7 -4 -4 -10z"/>
<path d="M3630 4360 c0 -5 5 -10 10 -10 6 0 10 5 10 10 0 6 -4 10 -10 10 -5 0
-10 -4 -10 -10z"/>
<path d="M986 4290 c-91 -67 -129 -104 -106 -98 20 4 209 140 209 151 2 18
-30 2 -103 -53z"/>
<path d="M3740 4286 c0 -8 203 -167 207 -162 9 9 -16 35 -100 103 -67 53 -107
76 -107 59z"/>
<path d="M775 4110 c-3 -5 -1 -10 4 -10 6 0 11 5 11 10 0 6 -2 10 -4 10 -3 0
-8 -4 -11 -10z"/>
<path d="M4035 4040 c-3 -5 -1 -10 4 -10 6 0 11 5 11 10 0 6 -2 10 -4 10 -3 0
-8 -4 -11 -10z"/>
<path d="M596 3930 c-42 -50 -76 -95 -76 -100 0 -22 20 -7 58 43 22 28 57 68
76 86 34 33 46 61 27 61 -5 0 -44 -41 -85 -90z"/>
<path d="M4128 3944 c-4 -5 14 -34 38 -64 25 -29 59 -73 76 -97 30 -41 48 -54
48 -34 0 24 -154 209 -162 195z"/>
<path d="M435 3720 c-3 -5 1 -10 10 -10 9 0 13 5 10 10 -3 6 -8 10 -10 10 -2
0 -7 -4 -10 -10z"/>
<path d="M4350 3630 c0 -5 5 -10 10 -10 6 0 10 5 10 10 0 6 -4 10 -10 10 -5 0
-10 -4 -10 -10z"/>
<path d="M326 3548 c-57 -104 -80 -157 -72 -165 5 -5 10 -3 12 2 2 6 29 55 59
110 30 54 55 103 55 107 0 24 -23 1 -54 -54z"/>
<path d="M4422 3512 c2 -5 26 -57 53 -115 46 -99 65 -126 65 -94 0 23 -99 217
-110 217 -7 0 -10 -4 -8 -8z"/>
<path d="M195 3260 c3 -5 8 -10 11 -10 2 0 4 5 4 10 0 6 -5 10 -11 10 -5 0 -7
-4 -4 -10z"/>
<path d="M1628 2608 c-3 -512 -6 -640 -17 -668 -47 -116 -99 -149 -251 -157
l-100 -6 0 -88 0 -89 89 0 c178 0 302 40 378 123 49 53 65 83 89 162 16 54 18
123 21 708 l4 647 -105 0 -105 0 -3 -632z"/>
<path d="M2250 2425 l0 -815 105 0 105 0 0 345 0 345 216 0 c241 0 285 -7 341
-55 60 -51 91 -128 157 -392 l61 -243 108 0 c79 0 107 3 107 13 0 34 -132 502
-158 559 -39 85 -102 155 -170 185 -29 12 -60 23 -70 24 -9 0 -1 6 19 14 159
58 242 143 284 289 13 44 16 81 12 140 -14 227 -149 360 -402 396 -38 5 -215
10 -392 10 l-323 0 0 -815z m746 607 c105 -47 156 -133 156 -261 0 -96 -25
-154 -90 -211 -76 -68 -136 -80 -388 -80 l-214 0 0 291 0 291 243 -4 c227 -3
245 -5 293 -26z"/>
<path d="M4570 3170 c0 -5 5 -10 10 -10 6 0 10 5 10 10 0 6 -4 10 -10 10 -5 0
-10 -4 -10 -10z"/>
<path d="M111 3028 c-34 -122 -36 -138 -21 -138 5 0 14 19 20 43 13 51 48 170
56 192 4 9 1 15 -9 15 -10 0 -24 -33 -46 -112z"/>
<path d="M4618 3045 c-3 -3 6 -52 19 -108 13 -56 26 -112 29 -125 3 -13 9 -20
15 -16 11 6 9 20 -23 154 -20 84 -29 106 -40 95z"/>
<path d="M60 2770 c0 -5 5 -10 11 -10 5 0 7 5 4 10 -3 6 -8 10 -11 10 -2 0 -4
-4 -4 -10z"/>
<path d="M4690 2670 c0 -5 5 -10 10 -10 6 0 10 5 10 10 0 6 -4 10 -10 10 -5 0
-10 -4 -10 -10z"/>
<path d="M36 2618 c-10 -48 -14 -228 -5 -234 5 -3 11 1 13 8 9 29 14 248 5
248 -5 0 -11 -10 -13 -22z"/>
<path d="M4700 2410 c0 -131 12 -171 24 -81 8 60 -3 211 -15 211 -5 0 -9 -58
-9 -130z"/>
<path d="M29 2355 c-6 -80 9 -255 22 -255 12 0 0 241 -12 255 -6 6 -9 6 -10 0z"/>
<path d="M4695 2150 c3 -5 8 -10 11 -10 2 0 4 5 4 10 0 6 -5 10 -11 10 -5 0
-7 -4 -4 -10z"/>
<path d="M4676 2018 c-7 -21 -50 -233 -48 -235 1 -2 5 -3 10 -4 16 -1 66 237
51 247 -5 3 -11 -1 -13 -8z"/>
<path d="M65 1970 c3 -5 8 -10 11 -10 2 0 4 5 4 10 0 6 -5 10 -11 10 -5 0 -7
-4 -4 -10z"/>
<path d="M90 1839 c0 -21 62 -224 71 -233 19 -20 17 3 -6 79 -13 44 -29 99
-35 123 -10 38 -30 59 -30 31z"/>
<path d="M4590 1649 c0 -5 5 -7 10 -4 6 3 10 8 10 11 0 2 -4 4 -10 4 -5 0 -10
-5 -10 -11z"/>
<path d="M4531 1508 c-5 -13 -27 -63 -50 -112 -43 -92 -47 -106 -33 -106 9 0
93 173 107 218 4 13 2 22 -5 22 -6 0 -14 -10 -19 -22z"/>
<path d="M210 1480 c0 -5 5 -10 10 -10 6 0 10 5 10 10 0 6 -4 10 -10 10 -5 0
-10 -4 -10 -10z"/>
<path d="M270 1349 c0 -13 80 -162 104 -194 8 -11 17 -17 21 -14 7 7 -106 218
-117 219 -5 0 -8 -5 -8 -11z"/>
<path d="M4370 1180 c0 -5 5 -10 10 -10 6 0 10 5 10 10 0 6 -4 10 -10 10 -5 0
-10 -4 -10 -10z"/>
<path d="M4279 1048 c-12 -18 -46 -63 -76 -100 -56 -71 -60 -78 -42 -78 13 0
11 -2 90 101 69 91 72 96 60 103 -5 4 -20 -8 -32 -26z"/>
<path d="M460 1030 c0 -5 5 -10 10 -10 6 0 10 5 10 10 0 6 -4 10 -10 10 -5 0
-10 -4 -10 -10z"/>
<path d="M540 923 c0 -12 160 -193 171 -193 20 0 6 21 -71 106 -77 86 -100
106 -100 87z"/>
<path d="M4060 770 c0 -5 5 -10 10 -10 6 0 10 5 10 10 0 6 -4 10 -10 10 -5 0
-10 -4 -10 -10z"/>
<path d="M3879 610 c-87 -74 -118 -108 -91 -99 24 8 192 153 192 166 0 7 -2
13 -4 13 -2 0 -46 -36 -97 -80z"/>
<path d="M805 650 c-3 -5 -1 -10 4 -10 6 0 11 5 11 10 0 6 -2 10 -4 10 -3 0
-8 -4 -11 -10z"/>
<path d="M910 558 c0 -7 33 -37 73 -66 97 -72 125 -88 134 -78 4 5 0 13 -11
20 -10 6 -56 39 -103 74 -47 34 -87 62 -89 62 -2 0 -4 -6 -4 -12z"/>
<path d="M3670 440 c0 -5 5 -10 10 -10 6 0 10 5 10 10 0 6 -4 10 -10 10 -5 0
-10 -4 -10 -10z"/>
<path d="M3448 322 c-100 -53 -126 -72 -95 -72 20 0 210 105 215 118 6 19 -6
14 -120 -46z"/>
<path d="M1220 350 c0 -5 5 -10 11 -10 5 0 7 5 4 10 -3 6 -8 10 -11 10 -2 0
-4 -4 -4 -10z"/>
<path d="M1340 282 c0 -13 197 -102 226 -102 35 0 5 19 -99 63 -119 49 -127
52 -127 39z"/>
<path d="M3210 200 c0 -5 5 -10 10 -10 6 0 10 5 10 10 0 6 -4 10 -10 10 -5 0
-10 -4 -10 -10z"/>
<path d="M3025 149 c-33 -10 -86 -24 -117 -30 -60 -12 -79 -30 -30 -28 44 1
215 53 220 67 5 15 1 15 -73 -9z"/>
<path d="M1695 140 c3 -5 8 -10 11 -10 2 0 4 5 4 10 0 6 -5 10 -11 10 -5 0 -7
-4 -4 -10z"/>
<path d="M1832 109 c7 -23 238 -64 245 -44 2 6 -43 18 -99 27 -57 10 -114 21
-127 24 -18 5 -23 4 -19 -7z"/>
<path d="M2710 70 c0 -5 5 -10 10 -10 6 0 10 5 10 10 0 6 -4 10 -10 10 -5 0
-10 -4 -10 -10z"/>
<path d="M2458 63 c-96 -3 -118 -6 -118 -18 0 -13 18 -14 118 -9 130 6 146 9
137 24 -3 5 -9 9 -13 8 -4 -1 -60 -4 -124 -5z"/>
<path d="M2200 50 c0 -5 5 -10 10 -10 6 0 10 5 10 10 0 6 -4 10 -10 10 -5 0
-10 -4 -10 -10z"/>
</g>
</svg>
